<svg id="Capa_1" data-name="Capa 1" xmlns="http://www.w3.org/2000/svg" viewBox="0 0 456.16 90.41"><defs><style>.cls-1{fill:#020202;}</style></defs><title>Mesa de trabajo 1</title><path class="cls-1" d="M11.39,25.83V20.76H48.31V35.52H42.78V25.83H22.47V42H31.7V36.45h5.54V53.06H31.7v-6H22.47V65.52H42.78V55.83h5.53V70.6H11.39V65.52h5.54V25.83Z"/><path class="cls-1" d="M55.7,65.52h5.54V25.83H55.7V20.76H72.31v5.07H66.78V65.52H88.93V55.83h5.54V70.6H55.7Z"/><path class="cls-1" d="M127.7,48.45V65.52h5.54V70.6H116.62V65.52h5.54V25.83h-5.54V20.76h22.15q9,0,13.07,3.32t4,10q0,11.45-13.2,13.66V48a12.87,12.87,0,0,1,3,2.3,25.62,25.62,0,0,1,3.5,5l5.91,10.24h5.82V70.6h-9.79c-.8-1.48-1.55-2.84-2.26-4.11s-1.4-2.47-2.08-3.64l-3.13-5.54a50.22,50.22,0,0,0-2.91-4.8,12.56,12.56,0,0,0-2.45-2.68,5.74,5.74,0,0,0-2.49-1.15,18,18,0,0,0-3-.23Zm10.15-5.08q5.82,0,8.91-2.12c2.06-1.42,3.09-3.69,3.09-6.83s-.91-5.2-2.72-6.56-4.76-2-8.82-2H127.7V43.37Z"/><path class="cls-1" d="M166.47,25.83V20.76h36.92V35.52h-5.54V25.83H177.54V42h9.23V36.45h5.54V53.06h-5.54v-6h-9.23V65.52h20.31V55.83h5.54V70.6H166.47V65.52H172V25.83Z"/><path class="cls-1" d="M249.54,25.83H244V20.76h16.62v5.07h-5.54V70.6h-5.54L222.22,30.82h-.37v34.7h5.54V70.6H210.77V65.52h5.54V25.83h-5.54V20.76h11.08l27.32,39.69h.37Z"/><path class="cls-1" d="M277.23,65.52V70.6H260.62V65.52h5.08l17-44.76h6.19l16.61,44.76h5V70.6H293.85V65.52h5.72l-4.43-12H275.57l-4.34,12Zm8.31-38.3h-.37l-7.75,21.23H293.3Z"/><path class="cls-1" d="M352.93,65.89a32.48,32.48,0,0,1-16.44,4.71q-10.69,0-17.21-6.74t-6.51-18.09q0-11.91,6.6-18.46t17.4-6.55a37.36,37.36,0,0,1,16.16,3.87V37.37h-5.54V28.14a25.69,25.69,0,0,0-11.08-2.31q-8.58,0-13.06,5.13t-4.48,14.35q0,9.42,4.8,14.81T337,65.52q7.38,0,16-4.8Z"/><path class="cls-1" d="M360.31,25.83V20.76h36.92V35.52h-5.54V25.83h-20.3V42h9.23V36.45h5.54V53.06h-5.54v-6h-9.23V65.52h20.3V55.83h5.54V70.6H360.31V65.52h5.54V25.83Z"/><path class="cls-1" d="M415.69,48.45V65.52h5.54V70.6H404.62V65.52h5.53V25.83h-5.53V20.76h22.15q9,0,13.06,3.32t4,10q0,11.45-13.2,13.66V48a12.83,12.83,0,0,1,3,2.3,25.15,25.15,0,0,1,3.51,5l5.91,10.24h5.81V70.6h-9.78c-.8-1.48-1.56-2.84-2.26-4.11s-1.4-2.47-2.08-3.64l-3.14-5.54a50.22,50.22,0,0,0-2.91-4.8,12.55,12.55,0,0,0-2.44-2.68,5.74,5.74,0,0,0-2.49-1.15,18.06,18.06,0,0,0-3.05-.23Zm10.16-5.08q5.81,0,8.9-2.12c2.07-1.42,3.1-3.69,3.1-6.83s-.91-5.2-2.73-6.56-4.75-2-8.81-2H415.69V43.37Z"/></svg>